<svg xmlns="http://www.w3.org/2000/svg" version="1.1" xmlns:xlink="http://www.w3.org/1999/xlink" xmlns:svgjs="http://svgjs.dev/svgjs" width="1000" height="1000" viewBox="0 0 1000 1000"><rect width="1000" height="1000" fill="#ffffff"></rect><g transform="matrix(0.7,0,0,0.7,149.57575757575756,456.55565019587857)"><svg viewBox="0 0 396 49" data-background-color="#ffffff" preserveAspectRatio="xMidYMid meet" height="123" width="1000" xmlns="http://www.w3.org/2000/svg" xmlns:xlink="http://www.w3.org/1999/xlink"><g id="tight-bounds" transform="matrix(1,0,0,1,0.2400000000000091,0.2244267177926531)"><svg viewBox="0 0 395.52 48.55114656441471" height="48.55114656441471" width="395.52"><g><svg viewBox="0 0 395.52 48.55114656441471" height="48.55114656441471" width="395.52"><g><svg viewBox="0 0 515.6133037859703 63.292923449319204" height="48.55114656441471" width="395.52"><g><rect width="5.27471448361053" height="63.292923449319204" x="101.01043620390291" y="0" fill="#010c80" opacity="1" stroke-width="0" stroke="transparent" fill-opacity="1" class="rect-o-0" data-fill-palette-color="primary" rx="1%" id="o-0" data-palette-color="#010c80"></rect></g><g transform="matrix(1,0,0,1,120.09330378597032,0.15744508320725714)"><svg viewBox="0 0 395.52 62.97803328290469" height="62.97803328290469" width="395.52"><g><svg viewBox="0 0 395.52 62.97803328290469" height="62.97803328290469" width="395.52"><g><svg viewBox="0 0 395.52 62.97803328290469" height="62.97803328290469" width="395.52"><g transform="matrix(1,0,0,1,0,0)"><svg width="395.52" viewBox="2.9000000953674316 -38.5 264.4000549316406 39.10000228881836" height="62.97803328290469" data-palette-color="#010c80"><svg></svg><g class="undefined-text-0" data-fill-palette-color="primary" id="text-0"><path xmlns="http://www.w3.org/2000/svg" d="M15.1 0.6v0c-2.133 0-3.967-0.31-5.5-0.93-1.533-0.613-2.8-1.497-3.8-2.65-1-1.147-1.733-2.53-2.2-4.15-0.467-1.613-0.7-3.437-0.7-5.47v0-19.9h8.6v20.9c0 1.4 0.26 2.55 0.78 3.45 0.513 0.9 1.453 1.35 2.82 1.35v0c1.4 0 2.367-0.45 2.9-1.35 0.533-0.9 0.8-2.05 0.8-3.45v0-20.9h8.3v19.9c0 2.033-0.223 3.857-0.67 5.47-0.453 1.62-1.163 3.003-2.13 4.15-0.967 1.153-2.207 2.037-3.72 2.65-1.52 0.62-3.347 0.93-5.48 0.93zM49.55 0.6v0c-1.667 0-3.127-0.267-4.38-0.8-1.247-0.533-2.297-1.277-3.15-2.23-0.847-0.947-1.477-2.087-1.89-3.42-0.42-1.333-0.63-2.817-0.63-4.45v0-17.8h-7.5v-6.7h16.1v24.8c0 0.733 0.117 1.333 0.35 1.8 0.233 0.467 0.527 0.84 0.88 1.12 0.347 0.287 0.747 0.487 1.2 0.6 0.447 0.12 0.887 0.18 1.32 0.18v0c1.033 0 2.233-0.233 3.6-0.7v0l1.85 6.3c-0.667 0.2-1.293 0.383-1.88 0.55-0.58 0.167-1.17 0.3-1.77 0.4-0.6 0.1-1.233 0.183-1.9 0.25-0.667 0.067-1.4 0.1-2.2 0.1zM79.3 0.6v0c-2.067 0-3.807-0.267-5.22-0.8-1.42-0.533-2.57-1.293-3.45-2.28-0.887-0.98-1.53-2.163-1.93-3.55-0.4-1.38-0.6-2.903-0.6-4.57v0-7.7h-6v-6.4l6.4-0.3 1.1-7.5h7.1v7.5h9.9v6.7h-9.9v7.55c0 1.8 0.407 3.023 1.22 3.67 0.82 0.653 2.03 0.98 3.63 0.98v0c0.867 0 1.673-0.077 2.42-0.23 0.753-0.147 1.463-0.337 2.13-0.57v0l1.5 6.2c-1.1 0.3-2.333 0.593-3.7 0.88-1.367 0.28-2.9 0.42-4.6 0.42zM111.8 0h-8.6v-18.3h-9.5v-6.7h18.1zM107.2-28.4v0c-1.6 0-2.917-0.46-3.95-1.38-1.033-0.913-1.55-2.12-1.55-3.62v0c0-1.5 0.517-2.727 1.55-3.68 1.033-0.947 2.35-1.42 3.95-1.42v0c1.6 0 2.917 0.473 3.95 1.42 1.033 0.953 1.55 2.18 1.55 3.68v0c0 1.5-0.517 2.707-1.55 3.62-1.033 0.92-2.35 1.38-3.95 1.38zM134.8 0.6v0c-2.133 0-4.307-0.377-6.52-1.13-2.22-0.747-4.247-1.92-6.08-3.52v0l4.9-5.9c1.233 0.933 2.55 1.69 3.95 2.27 1.4 0.587 2.85 0.88 4.35 0.88v0c1.3 0 2.227-0.183 2.78-0.55 0.547-0.367 0.82-0.817 0.82-1.35v0c0-0.467-0.107-0.86-0.32-1.18-0.22-0.313-0.53-0.597-0.93-0.85-0.4-0.247-0.89-0.487-1.47-0.72-0.587-0.233-1.247-0.5-1.98-0.8v0l-4.05-1.7c-0.933-0.333-1.817-0.777-2.65-1.33-0.833-0.547-1.56-1.197-2.18-1.95-0.613-0.747-1.103-1.603-1.47-2.57-0.367-0.967-0.55-2.033-0.55-3.2v0c0-1.4 0.3-2.71 0.9-3.93 0.6-1.213 1.443-2.28 2.53-3.2 1.08-0.913 2.377-1.637 3.89-2.17 1.52-0.533 3.213-0.8 5.08-0.8v0c1.933 0 3.867 0.35 5.8 1.05 1.933 0.7 3.7 1.8 5.3 3.3v0l-4.3 5.4c-1.167-0.767-2.293-1.35-3.38-1.75-1.08-0.4-2.387-0.6-3.92-0.6v0c-0.967 0-1.743 0.173-2.33 0.52-0.58 0.353-0.87 0.913-0.87 1.68v0c0 0.367 0.117 0.69 0.35 0.97 0.233 0.287 0.567 0.547 1 0.78 0.433 0.233 0.967 0.467 1.6 0.7 0.633 0.233 1.35 0.5 2.15 0.8v0l3.75 1.55c2.2 0.8 3.893 1.917 5.08 3.35 1.18 1.433 1.77 3.283 1.77 5.55v0c0 1.367-0.283 2.683-0.85 3.95-0.567 1.267-1.4 2.373-2.5 3.32-1.1 0.953-2.457 1.713-4.07 2.28-1.62 0.567-3.48 0.85-5.58 0.85zM169.3 0.6v0c-2.067 0-3.81-0.267-5.23-0.8-1.413-0.533-2.56-1.293-3.44-2.28-0.887-0.98-1.53-2.163-1.93-3.55-0.4-1.38-0.6-2.903-0.6-4.57v0-7.7h-6v-6.4l6.4-0.3 1.1-7.5h7.1v7.5h9.9v6.7h-9.9v7.55c0 1.8 0.41 3.023 1.23 3.67 0.813 0.653 2.02 0.98 3.62 0.98v0c0.867 0 1.673-0.077 2.42-0.23 0.753-0.147 1.463-0.337 2.13-0.57v0l1.5 6.2c-1.1 0.3-2.333 0.593-3.7 0.88-1.367 0.28-2.9 0.42-4.6 0.42zM190.8 0.6v0c-1.3 0-2.45-0.21-3.45-0.63-1-0.413-1.85-0.97-2.55-1.67-0.7-0.7-1.227-1.517-1.58-2.45-0.347-0.933-0.52-1.917-0.52-2.95v0c0-1.4 0.29-2.633 0.87-3.7 0.587-1.067 1.503-1.977 2.75-2.73 1.253-0.747 2.88-1.337 4.88-1.77 2-0.433 4.433-0.733 7.3-0.9v0c-0.167-0.9-0.657-1.56-1.47-1.98-0.82-0.413-1.93-0.62-3.33-0.62v0c-1.067 0-2.157 0.173-3.27 0.52-1.12 0.353-2.43 0.88-3.93 1.58v0l-3-5.6c1.9-1.067 3.833-1.883 5.8-2.45 1.967-0.567 4-0.85 6.1-0.85v0c1.767 0 3.373 0.223 4.82 0.67 1.453 0.453 2.69 1.153 3.71 2.1 1.013 0.953 1.797 2.17 2.35 3.65 0.547 1.487 0.82 3.247 0.82 5.28v0 13.9h-7l-0.6-2.6h-0.2c-1.233 0.9-2.567 1.657-4 2.27-1.433 0.62-2.933 0.93-4.5 0.93zM193.6-6v0c1 0 1.9-0.193 2.7-0.58 0.8-0.38 1.533-0.82 2.2-1.32v0-3.2c-1.533 0.067-2.793 0.19-3.78 0.37-0.98 0.187-1.753 0.43-2.32 0.73-0.567 0.3-0.96 0.633-1.18 1-0.213 0.367-0.32 0.767-0.32 1.2v0c0 1.2 0.9 1.8 2.7 1.8zM229.3 0.6v0c-2.067 0-3.81-0.267-5.23-0.8-1.413-0.533-2.56-1.293-3.44-2.28-0.887-0.98-1.53-2.163-1.93-3.55-0.4-1.38-0.6-2.903-0.6-4.57v0-7.7h-6v-6.4l6.4-0.3 1.1-7.5h7.1v7.5h9.9v6.7h-9.9v7.55c0 1.8 0.41 3.023 1.23 3.67 0.813 0.653 2.02 0.98 3.62 0.98v0c0.867 0 1.673-0.077 2.42-0.23 0.753-0.147 1.463-0.337 2.13-0.57v0l1.5 6.2c-1.1 0.3-2.333 0.593-3.7 0.88-1.367 0.28-2.9 0.42-4.6 0.42zM254.5 0.6v0c-2.167 0-4.343-0.367-6.53-1.1-2.18-0.733-4.07-1.633-5.67-2.7v0l3.6-5.3c1.6 0.933 3.233 1.633 4.9 2.1 1.667 0.467 3.3 0.7 4.9 0.7v0c1.1 0 1.89-0.133 2.37-0.4 0.487-0.267 0.73-0.633 0.73-1.1v0c0-0.3-0.093-0.55-0.28-0.75-0.18-0.2-0.477-0.373-0.89-0.52-0.42-0.153-0.987-0.307-1.7-0.46-0.72-0.147-1.597-0.337-2.63-0.57v0c-1.733-0.367-3.19-0.81-4.37-1.33-1.187-0.513-2.153-1.103-2.9-1.77-0.753-0.667-1.297-1.41-1.63-2.23-0.333-0.813-0.5-1.703-0.5-2.67v0c0-1.233 0.283-2.35 0.85-3.35 0.567-1 1.367-1.85 2.4-2.55 1.033-0.7 2.283-1.243 3.75-1.63 1.467-0.38 3.1-0.57 4.9-0.57v0c2.367 0 4.477 0.373 6.33 1.12 1.847 0.753 3.437 1.547 4.77 2.38v0l-3.8 5.1c-1.3-0.767-2.65-1.343-4.05-1.73-1.4-0.38-2.75-0.57-4.05-0.57v0c-0.8 0-1.433 0.117-1.9 0.35-0.467 0.233-0.7 0.583-0.7 1.05v0c0 0.267 0.093 0.483 0.28 0.65 0.18 0.167 0.47 0.323 0.87 0.47 0.4 0.153 0.933 0.297 1.6 0.43 0.667 0.133 1.483 0.317 2.45 0.55v0c1.867 0.433 3.423 0.9 4.67 1.4 1.253 0.5 2.253 1.073 3 1.72 0.753 0.653 1.28 1.387 1.58 2.2 0.3 0.82 0.45 1.747 0.45 2.78v0c0 1.167-0.273 2.26-0.82 3.28-0.553 1.013-1.373 1.893-2.46 2.64-1.08 0.753-2.413 1.337-4 1.75-1.58 0.42-3.42 0.63-5.52 0.63z" fill="#010c80" fill-rule="nonzero" stroke="none" stroke-width="1" stroke-linecap="butt" stroke-linejoin="miter" stroke-miterlimit="10" stroke-dasharray="" stroke-dashoffset="0" font-family="none" font-weight="none" font-size="none" text-anchor="none" style="mix-blend-mode: normal" data-fill-palette-color="primary" opacity="1"></path></g></svg></g></svg></g></svg></g></svg></g><g transform="matrix(1,0,0,1,0,0.15744508320725714)"><svg viewBox="0 0 87.20228310544603 62.97803328290469" height="62.97803328290469" width="87.20228310544603"><g><svg xmlns="http://www.w3.org/2000/svg" xmlns:xlink="http://www.w3.org/1999/xlink" version="1.1" x="0" y="0" viewBox="5 17.5 90.00199127197266 65" enable-background="new 0 0 100 100" xml:space="preserve" height="62.97803328290469" width="87.20228310544603" class="icon-icon-0" data-fill-palette-color="accent" id="icon-0"><path d="M87.5 27.5c-2.516 0-4.742 1.25-6.103 3.156l-21.421-6.12C59.735 20.617 56.479 17.5 52.5 17.5c-4.136 0-7.5 3.364-7.5 7.5 0 2.606 1.338 4.904 3.361 6.248l-9.072 36.288c-2.946 0.279-5.395 2.27-6.351 4.964H19.563c-1.033-2.908-3.804-5-7.063-5C8.364 67.5 5 70.864 5 75s3.364 7.5 7.5 7.5c3.258 0 6.03-2.092 7.063-5h13.375c1.033 2.908 3.804 5 7.063 5 4.136 0 7.5-3.364 7.5-7.5 0-2.606-1.338-4.904-3.361-6.249l9.072-36.288c2.222-0.21 4.16-1.395 5.392-3.12l21.421 6.12c0.241 3.919 3.497 7.036 7.477 7.036 4.136 0 7.5-3.364 7.5-7.5S91.636 27.5 87.5 27.5zM87.5 37.5c-1.379 0-2.5-1.122-2.5-2.5s1.121-2.5 2.5-2.5S90 33.622 90 35 88.879 37.5 87.5 37.5zM52.5 27.5c-1.379 0-2.5-1.122-2.5-2.5s1.121-2.5 2.5-2.5S55 23.622 55 25 53.879 27.5 52.5 27.5zM40 77.5c-1.379 0-2.5-1.121-2.5-2.5s1.121-2.5 2.5-2.5 2.5 1.121 2.5 2.5S41.379 77.5 40 77.5zM15 75c0 1.379-1.121 2.5-2.5 2.5S10 76.379 10 75s1.121-2.5 2.5-2.5S15 73.621 15 75z" fill="#0023ff" data-fill-palette-color="accent"></path><circle cx="25" cy="67.5" r="2.5" fill="#0023ff" data-fill-palette-color="accent"></circle><circle cx="35" cy="62.5" r="2.5" fill="#0023ff" data-fill-palette-color="accent"></circle><circle cx="55" cy="52.5" r="2.5" fill="#0023ff" data-fill-palette-color="accent"></circle><circle cx="65" cy="47.5" r="2.5" fill="#0023ff" data-fill-palette-color="accent"></circle><circle cx="75" cy="42.5" r="2.5" fill="#0023ff" data-fill-palette-color="accent"></circle></svg></g></svg></g></svg></g></svg></g><defs><mask id="b994830b-cce8-4823-be02-42dc19679e64"><rect width="640" height="400" fill="white"></rect><rect width="348.05760000000004" height="68.88527491214523" fill="black" x="145.97119999999998" y="165.55736254392738" id="transform-me" transform="matrix(1,0,0,1,-122.24000000000001,-85.73915105911576)"></rect></mask></defs></svg><rect width="395.52" height="48.55114656441471" fill="none" stroke="none" visibility="hidden"></rect></g></svg></g></svg>